<svg xmlns="http://www.w3.org/2000/svg" width="600" height="600"><defs><linearGradient id="a" x1="559" x2="41" y1="600" y2="0" gradientUnits="userSpaceOnUse"><stop offset="0%" stop-color="#025c8b"/><stop offset="100%" stop-color="#009fed"/></linearGradient><linearGradient id="d" x1="10" x2="150" y1="80" y2="80" gradientUnits="userSpaceOnUse"><stop offset="0%" stop-color="#005c8a"/><stop offset="100%" stop-color="#009fed"/></linearGradient><linearGradient id="f" x1="50" x2="110" y1="80" y2="80" gradientUnits="userSpaceOnUse"><stop offset="0%" stop-color="#009fed"/><stop offset="100%" stop-color="#025c8a"/></linearGradient><linearGradient id="h" x1="520" x2="520" y1="10" y2="150" gradientUnits="userSpaceOnUse"><stop offset="0%" stop-color="#005c8a"/><stop offset="100%" stop-color="#009fed"/></linearGradient><linearGradient id="j" x1="520" x2="520" y1="50" y2="110" gradientUnits="userSpaceOnUse"><stop offset="0%" stop-color="#009fed"/><stop offset="100%" stop-color="#025c8a"/></linearGradient><linearGradient id="l" x1="80" x2="80" y1="590" y2="450" gradientUnits="userSpaceOnUse"><stop offset="0%" stop-color="#005c8a"/><stop offset="100%" stop-color="#009fed"/></linearGradient><linearGradient id="n" x1="80" x2="80" y1="550" y2="490" gradientUnits="userSpaceOnUse"><stop offset="0%" stop-color="#009fed"/><stop offset="100%" stop-color="#025c8a"/></linearGradient><clipPath id="b"><path d="M10 310h20v-20a20 20 0 0 0-20 20m0 0h20v20H10zm20 20H10v10a10 10 0 0 0 20 0m-20 50h20v-10a10 10 0 0 0-20 0m20 10H10v10a10 10 0 0 0 20 0m20-210v-20H40a10 10 0 0 0 0 20m10 40v-20H40a10 10 0 0 0 0 20m-10 40h20v-10a10 10 0 0 0-20 0m0 10h20v20H30zm0 20h20v20H30zm20-120v20h10a10 10 0 0 0 0-20m-10 40v20h20a20 20 0 0 0-20-20m20 40v-20H50a20 20 0 0 0 20 20m-20 40h20v20H50zm20 40v-20H50a20 20 0 0 0 20 20m-20 60h20v-10a10 10 0 0 0-20 0m0 10h20v20H50zm20 20H50v10a10 10 0 0 0 20 0m0-190h20v20H70zm20 20H70v10a10 10 0 0 0 20 0m-20 30h20v20H70zm20 20H70v20a20 20 0 0 0 20-20"/><circle cx="80" cy="360" r="10"/><path d="M70 390h20v20H70zm20-160h20v20H90zm0 60v20h10a10 10 0 0 0 0-20m10 60v-20h-10a10 10 0 0 0 0 20m-10 40h20v20H90z"/><circle cx="120" cy="200" r="10"/><path d="M110 230v20h10a10 10 0 0 0 0-20m-10 100h20v-10a10 10 0 0 0-20 0m0 10h20v20h-20zm0 20h20v20h-20zm0 20h20v20h-20zm20 20h-20v20a20 20 0 0 0 20-20"/><circle cx="140" cy="180" r="10"/><circle cx="140" cy="220" r="10"/><path d="M150 270v-20h-10a10 10 0 0 0 0 20m10 40v-20h-10a10 10 0 0 0 0 20m-10 20h20v20h-20zm0 40v20h10a10 10 0 0 0 0-20m10 60v-20h-10a10 10 0 0 0 0 20m10-180h20v-20a20 20 0 0 0-20 20m0 0h20v20h-20zm0 20h20v20h-20zm0 20h20v20h-20zm0 20h20v20h-20zm0 20h20v20h-20zm20 40v-20h-20a20 20 0 0 0 20 20m-20 40h20v-20a20 20 0 0 0-20 20m20 0h-20v20a20 20 0 0 0 20-20m0-360h20V40a10 10 0 0 0-20 0m0 10h20v20h-20zm20 20h-20v10a10 10 0 0 0 20 0m-20 50h20v-10a10 10 0 0 0-20 0m20 10h-20v10a10 10 0 0 0 20 0"/><circle cx="180" cy="200" r="10"/><path d="M170 230v20h10a10 10 0 0 0 0-20m-10 60v20h10a10 10 0 0 0 0-20m-10 40v20h20a20 20 0 0 0-20-20m0 20h20v20h-20zm0 20h20v20h-20zm0 20h20v20h-20zm0 160h20v-10a10 10 0 0 0-20 0m20 10h-20v10a10 10 0 0 0 20 0m20-530V10h-10a10 10 0 0 0 0 20m-10 20h20v20h-20zm20 140v-20h-10a10 10 0 0 0 0 20"/><circle cx="200" cy="260" r="10"/><path d="M190 350v20h10a10 10 0 0 0 0-20m-10 40v20h20a20 20 0 0 0-20-20m20 20h-20v10a10 10 0 0 0 20 0m-20 50h20v-20a20 20 0 0 0-20 20m0 0h20v20h-20zm0 20h20v20h-20zm20 40v-20h-20a20 20 0 0 0 20 20"/><circle cx="200" cy="580" r="10"/><path d="M210 10v20h10a10 10 0 0 0 0-20m-10 40v20h10a10 10 0 0 0 0-20m-10 100h20v-10a10 10 0 0 0-20 0m0 10h20v20h-20zm0 20h20v20h-20zm20 40v-20h-20a20 20 0 0 0 20 20m-20 80h20v-10a10 10 0 0 0-20 0m0 10h20v20h-20zm0 20h20v20h-20zm20 20h-20v10a10 10 0 0 0 20 0m0 50v-20h-10a10 10 0 0 0 0 20m-10 60v20h10a10 10 0 0 0 0-20m-10 40h20v20h-20zm0 20h20v20h-20zm0 20h20v20h-20zm20 20h-20v10a10 10 0 0 0 20 0m0-370h20v20h-20zm20 60v-20h-10a10 10 0 0 0 0 20m-10 60h20v20h-20zm0 60v20h10a10 10 0 0 0 0-20m10 60v-20h-10a10 10 0 0 0 0 20m-10 60h20v-20a20 20 0 0 0-20 20m20 0h-20v20a20 20 0 0 0 20-20m0 100v-20h-10a10 10 0 0 0 0 20m10-560h20V10a20 20 0 0 0-20 20m0 0h20v20h-20zm0 20h20v20h-20zm20 40V70h-20a20 20 0 0 0 20 20m-20 60h20v-10a10 10 0 0 0-20 0m0 10h20v20h-20zm0 20h20v20h-20zm0 20h20v20h-20zm0 40v20h20a20 20 0 0 0-20-20m0 20h20v20h-20zm0 20h20v20h-20zm0 20h20v20h-20zm0 20h20v20h-20zm0 20h20v20h-20zm20 40v-20h-20a20 20 0 0 0 20 20m-20 40h20v-20a20 20 0 0 0-20 20m0 0h20v20h-20zm20 20h-20v10a10 10 0 0 0 20 0m-20 30h20v20h-20zm0 60h20v-20a20 20 0 0 0-20 20m0 0h20v20h-20zm0 20h20v20h-20zm0 20h20v20h-20zm20-560v20h10a10 10 0 0 0 0-20m-10 60h20v20h-20zm0 100v20h20a20 20 0 0 0-20-20m20 20h-20v20a20 20 0 0 0 20-20m-20 60h20v20h-20zm0 100v20h10a10 10 0 0 0 0-20m-10 40h20v20h-20zm0 80h20v-20a20 20 0 0 0-20 20m0 0h20v20h-20zm0 40h20v20h-20zm20 20h-20v20a20 20 0 0 0 20-20m-20 40h20v20h-20zm20-500h20v20h-20zm20 20h-20v10a10 10 0 0 0 20 0m-20 50h20v-10a10 10 0 0 0-20 0m20 10h-20v10a10 10 0 0 0 20 0"/><circle cx="300" cy="220" r="10"/><path d="M290 250v20h10a10 10 0 0 0 0-20m-10 80h20v-10a10 10 0 0 0-20 0m20 30v-20h-20a20 20 0 0 0 20 20m-20 40h20v-20a20 20 0 0 0-20 20m0 0h20v20h-20zm20 20h-20v10a10 10 0 0 0 20 0m-20 30h20v20h-20zm0 20h20v20h-20zm0 20h20v20h-20zm0 20h20v20h-20zm0 60h20v-20a20 20 0 0 0-20 20m0 0h20v20h-20zm20-520h20V30a20 20 0 0 0-20 20m0 0h20v20h-20zm20 20h-20v20a20 20 0 0 0 20-20"/><circle cx="320" cy="200" r="10"/><path d="M330 310v-20h-10a10 10 0 0 0 0 20m-10 20h20v20h-20zm0 40h20v20h-20zm0 80h20v-10a10 10 0 0 0-20 0m20 10h-20v20a20 20 0 0 0 20-20m-20 40h20v20h-20zm0 20h20v20h-20zm0 40h20v20h-20zm0 20h20v20h-20zm20-540h20V20a10 10 0 0 0-20 0m0 10h20v20h-20zm0 20h20v20h-20z"/><circle cx="340" cy="100" r="10"/><circle cx="340" cy="140" r="10"/><path d="M330 230h20v-20a20 20 0 0 0-20 20m20 20v-20h-20a20 20 0 0 0 20 20m-20 40h20v-20a20 20 0 0 0-20 20m20 0h-20v20a20 20 0 0 0 20-20m-20 40h20v20h-20zm0 40h20v20h-20zm20 60v-20h-10a10 10 0 0 0 0 20m-10 60h20v-20a20 20 0 0 0-20 20m0 0h20v20h-20zm0 20h20v20h-20zm0 40v20h20a20 20 0 0 0-20-20m20 20h-20v20a20 20 0 0 0 20-20m0-520h20v20h-20zm20 20h-20v10a10 10 0 0 0 20 0m0 50v-20h-10a10 10 0 0 0 0 20m-10 40h20v-10a10 10 0 0 0-20 0m0 10h20v20h-20zm0 20h20v20h-20zm0 20h20v20h-20zm20 20h-20v20a20 20 0 0 0 20-20m-20 40h20v20h-20zm0 60h20v20h-20zm0 40v20h10a10 10 0 0 0 0-20m-10 40h20v20h-20zm0 60v20h10a10 10 0 0 0 0-20m-10 40v20h10a10 10 0 0 0 0-20"/><circle cx="380" cy="20" r="10"/><path d="M370 50v20h10a10 10 0 0 0 0-20m-10 60v20h20a20 20 0 0 0-20-20m20 20h-20v10a10 10 0 0 0 20 0m-20 130h20v20h-20zm0 20h20v20h-20zm0 20h20v20h-20zm20 20h-20v20a20 20 0 0 0 20-20m-20 80h20v20h-20zm20 60v-20h-10a10 10 0 0 0 0 20"/><circle cx="380" cy="500" r="10"/><path d="M390 550v-20h-10a10 10 0 0 0 0 20m30-440V90h-10a10 10 0 0 0 0 20"/><circle cx="400" cy="180" r="10"/><path d="M390 250h20v-10a10 10 0 0 0-20 0m0 10h20v20h-20zm0 20h20v20h-20zm20 20h-20v20a20 20 0 0 0 20-20m0 80v-20h-10a10 10 0 0 0 0 20m-10 40h20v-20a20 20 0 0 0-20 20m0 0h20v20h-20zm0 20h20v20h-20zm0 20h20v20h-20zm0 80h20v-20a20 20 0 0 0-20 20m0 0h20v20h-20z"/><circle cx="400" cy="580" r="10"/><circle cx="420" cy="40" r="10"/><path d="M410 90h20V80a10 10 0 0 0-20 0m20 10h-20v20a20 20 0 0 0 20-20"/><circle cx="420" cy="140" r="10"/><path d="M410 210h20v-20a20 20 0 0 0-20 20m20 0h-20v10a10 10 0 0 0 20 0m-20 130h20v-20a20 20 0 0 0-20 20m0 0h20v20h-20zm0 20h20v20h-20zm0 20h20v20h-20zm0 20h20v20h-20zm0 20h20v20h-20zm0 20h20v20h-20zm0 20h20v20h-20zm0 20h20v20h-20zm0 20h20v20h-20zm0 20h20v20h-20zm20 40v-20h-20a20 20 0 0 0 20 20m0-380h20v-10a10 10 0 0 0-20 0m20 10h-20v20a20 20 0 0 0 20-20m-20 60h20v-20a20 20 0 0 0-20 20m20 20v-20h-20a20 20 0 0 0 20 20m-20 60h20v20h-20zm0 40v20h20a20 20 0 0 0-20-20m0 20h20v20h-20zm0 20h20v20h-20zm0 80h20v20h-20zm20 20h-20v20a20 20 0 0 0 20-20m-20 40h20v20h-20zm20 20h-20v10a10 10 0 0 0 20 0m0-350h20v-10a10 10 0 0 0-20 0m0 10h20v20h-20zm0 20h20v20h-20zm20 40v-20h-20a20 20 0 0 0 20 20m-20 40v20h10a10 10 0 0 0 0-20m-10 60v20h20a20 20 0 0 0-20-20m0 20h20v20h-20z"/><circle cx="460" cy="460" r="10"/><path d="M450 490h20v20h-20zm0 60h20v-10a10 10 0 0 0-20 0m0 10h20v20h-20z"/><circle cx="480" cy="180" r="10"/><path d="M470 270v20h20a20 20 0 0 0-20-20m0 20h20v20h-20zm20 40v-20h-20a20 20 0 0 0 20 20m-20 80h20v20h-20zm0 80h20v20h-20zm0 60v20h20a20 20 0 0 0-20-20m20 20h-20v10a10 10 0 0 0 20 0m0-350h20v-20a20 20 0 0 0-20 20m0 0h20v20h-20zm20 40v-20h-20a20 20 0 0 0 20 20m-20 40v20h10a10 10 0 0 0 0-20"/><circle cx="500" cy="380" r="10"/><path d="M490 410v20h20a20 20 0 0 0-20-20m0 20h20v20h-20zm0 20h20v20h-20zm0 20h20v20h-20zm0 20h20v20h-20zm0 20h20v20h-20zm20 40v-20h-20a20 20 0 0 0 20 20m0-360h20v-20a20 20 0 0 0-20 20m0 0h20v20h-20zm0 20h20v20h-20zm0 20h20v20h-20zm0 20h20v20h-20zm20 20h-20v10a10 10 0 0 0 20 0m-20 70h20v-20a20 20 0 0 0-20 20m20 0h-20v10a10 10 0 0 0 20 0"/><circle cx="520" cy="400" r="10"/><path d="M510 490v20h10a10 10 0 0 0 0-20m-10 40v20h20a20 20 0 0 0-20-20m20 20h-20v10a10 10 0 0 0 20 0m0-390h20v20h-20zm0 20h20v20h-20zm20 20h-20v20a20 20 0 0 0 20-20m-20 120h20v-10a10 10 0 0 0-20 0m0 10h20v20h-20z"/><circle cx="540" cy="380" r="10"/><path d="M550 430v-20h-10a10 10 0 0 0 0 20"/><circle cx="540" cy="480" r="10"/><circle cx="540" cy="580" r="10"/><path d="M550 170v20h20a20 20 0 0 0-20-20m20 20h-20v20a20 20 0 0 0 20-20m-20 80h20v-20a20 20 0 0 0-20 20m0 0h20v20h-20zm20 20h-20v10a10 10 0 0 0 20 0m-20 30v20h10a10 10 0 0 0 0-20m-10 80h20v20h-20zm20 60v-20h-10a10 10 0 0 0 0 20m-10 40h20v-10a10 10 0 0 0-20 0m20 30v-20h-20a20 20 0 0 0 20 20m0 40v-20h-10a10 10 0 0 0 0 20m10-320h20v-10a10 10 0 0 0-20 0m0 10h20v20h-20zm20 20h-20v20a20 20 0 0 0 20-20"/><circle cx="580" cy="320" r="10"/><path d="M570 390h20v-10a10 10 0 0 0-20 0m0 10h20v20h-20zm20 20h-20v20a20 20 0 0 0 20-20m-20 40v20h20a20 20 0 0 0-20-20m20 20h-20v10a10 10 0 0 0 20 0m-20 30v20h10a10 10 0 0 0 0-20m-10 40v20h10a10 10 0 0 0 0-20"/></clipPath><clipPath id="e"><path d="M10 60v40a50 50 0 0 0 50 50h40a50 50 0 0 0 50-50V60a50 50 0 0 0-50-50H60a50 50 0 0 0-50 50m50-30h40a30 30 0 0 1 30 30v40a30 30 0 0 1-30 30H60a30 30 0 0 1-30-30V60a30 30 0 0 1 30-30" clip-rule="evenodd"/></clipPath><clipPath id="g"><circle cx="80" cy="80" r="30"/></clipPath><clipPath id="i"><path d="M540 10h-40a50 50 0 0 0-50 50v40a50 50 0 0 0 50 50h40a50 50 0 0 0 50-50V60a50 50 0 0 0-50-50m30 50v40a30 30 0 0 1-30 30h-40a30 30 0 0 1-30-30V60a30 30 0 0 1 30-30h40a30 30 0 0 1 30 30" clip-rule="evenodd"/></clipPath><clipPath id="k"><circle cx="520" cy="80" r="30" transform="rotate(90 520 80)"/></clipPath><clipPath id="m"><path d="M60 590h40a50 50 0 0 0 50-50v-40a50 50 0 0 0-50-50H60a50 50 0 0 0-50 50v40a50 50 0 0 0 50 50m-30-50v-40a30 30 0 0 1 30-30h40a30 30 0 0 1 30 30v40a30 30 0 0 1-30 30H60a30 30 0 0 1-30-30" clip-rule="evenodd"/></clipPath><clipPath id="o"><circle cx="80" cy="520" r="30" transform="rotate(-90 80 520)"/></clipPath></defs><path fill="#fff" d="M0 0h600v600H0z" clip-path="url('#clip-path-background-color')"/><path fill="url('#a')" d="M0 0h600v600H0z" clip-path="url('#b')"/><path fill="url('#d')" d="M10 10h140v140H10z" clip-path="url('#e')"/><path fill="url('#f')" d="M50 50h60v60H50z" clip-path="url('#g')"/><path fill="url('#h')" d="M450 10h140v140H450z" clip-path="url('#i')"/><path fill="url('#j')" d="M490 50h60v60h-60z" clip-path="url('#k')"/><path fill="url('#l')" d="M10 450h140v140H10z" clip-path="url('#m')"/><path fill="url('#n')" d="M50 490h60v60H50z" clip-path="url('#o')"/></svg>